<svg width="327" height="31" viewBox="0 0 327 31" fill="none" xmlns="http://www.w3.org/2000/svg">
<path d="M83 0H243C241.436 0.612651 240.392 2.1037 240.352 3.78289L240.309 5.5618C240.309 19.0587 229.368 30 215.871 30H110.129C96.6325 30 85.6911 19.0587 85.6911 5.5618L85.6483 3.78289C85.6078 2.1037 84.564 0.612651 83 0Z" fill="#595454"/>
<path opacity="0.35" d="M303.046 22C303.046 20.8034 304.016 19.8334 305.213 19.8334H321.88C323.076 19.8334 324.046 20.8034 324.046 22V28C324.046 29.1967 323.076 30.1667 321.88 30.1667H305.213C304.016 30.1667 303.046 29.1967 303.046 28V22Z" stroke="black"/>
<path opacity="0.4" d="M325.546 23.0001V27.0001C326.351 26.6613 326.874 25.8732 326.874 25.0001C326.874 24.1269 326.351 23.3388 325.546 23.0001Z" fill="#595454"/>
<path d="M304.546 22.6667C304.546 21.9303 305.143 21.3334 305.88 21.3334H321.213C321.949 21.3334 322.546 21.9303 322.546 22.6667V27.3334C322.546 28.0698 321.949 28.6667 321.213 28.6667H305.88C305.143 28.6667 304.546 28.0698 304.546 27.3334V22.6667Z" fill="#595454"/>
<path fill-rule="evenodd" clip-rule="evenodd" d="M289.877 21.608C292.093 21.6081 294.224 22.4596 295.83 23.9863C295.951 24.1042 296.144 24.1027 296.263 23.983L297.419 22.8163C297.479 22.7556 297.513 22.6734 297.513 22.5878C297.512 22.5022 297.478 22.4204 297.417 22.3603C293.201 18.3208 286.552 18.3208 282.337 22.3603C282.275 22.4203 282.241 22.5021 282.24 22.5877C282.24 22.6733 282.273 22.7556 282.334 22.8163L283.49 23.983C283.609 24.1029 283.802 24.1044 283.923 23.9863C285.529 22.4595 287.661 21.608 289.877 21.608ZM289.877 25.4037C291.094 25.4036 292.268 25.8561 293.171 26.6733C293.293 26.7893 293.485 26.7868 293.604 26.6677L294.759 25.501C294.82 25.4398 294.853 25.3568 294.853 25.2705C294.852 25.1843 294.816 25.102 294.754 25.042C292.006 22.4856 287.75 22.4856 285.002 25.042C284.94 25.102 284.904 25.1843 284.904 25.2706C284.903 25.3569 284.937 25.4399 284.998 25.501L286.152 26.6677C286.271 26.7868 286.463 26.7893 286.585 26.6733C287.487 25.8567 288.66 25.4042 289.877 25.4037ZM292.19 27.9575C292.192 28.044 292.158 28.1274 292.096 28.188L290.099 30.2037C290.04 30.2629 289.96 30.2963 289.877 30.2963C289.794 30.2963 289.714 30.2629 289.655 30.2037L287.658 28.188C287.596 28.1274 287.562 28.0439 287.564 27.9574C287.566 27.8709 287.603 27.789 287.667 27.731C288.943 26.6521 290.811 26.6521 292.087 27.731C292.151 27.7891 292.188 27.871 292.19 27.9575Z" fill="#595454"/>
<path fill-rule="evenodd" clip-rule="evenodd" d="M276.213 19.6666H275.213C274.661 19.6666 274.213 20.1143 274.213 20.6666V29.3333C274.213 29.8856 274.661 30.3333 275.213 30.3333H276.213C276.765 30.3333 277.213 29.8856 277.213 29.3333V20.6666C277.213 20.1143 276.765 19.6666 276.213 19.6666ZM270.546 22H271.546C272.099 22 272.546 22.4477 272.546 23V29.3333C272.546 29.8856 272.099 30.3333 271.546 30.3333H270.546C269.994 30.3333 269.546 29.8856 269.546 29.3333V23C269.546 22.4477 269.994 22 270.546 22ZM266.88 24.3333H265.88C265.328 24.3333 264.88 24.781 264.88 25.3333V29.3333C264.88 29.8856 265.328 30.3333 265.88 30.3333H266.88C267.432 30.3333 267.88 29.8856 267.88 29.3333V25.3333C267.88 24.781 267.432 24.3333 266.88 24.3333ZM262.213 26.3333H261.213C260.661 26.3333 260.213 26.781 260.213 27.3333V29.3333C260.213 29.8856 260.661 30.3333 261.213 30.3333H262.213C262.765 30.3333 263.213 29.8856 263.213 29.3333V27.3333C263.213 26.781 262.765 26.3333 262.213 26.3333Z" fill="#595454"/>
<path d="M3.86719 30.2563C6.55518 30.2563 8.15186 28.1543 8.15186 24.5947C8.15186 23.2544 7.89551 22.1265 7.40479 21.2549C6.69434 19.8999 5.47119 19.1675 3.92578 19.1675C1.62598 19.1675 0 20.7129 0 22.8809C0 24.917 1.46484 26.3965 3.479 26.3965C4.7168 26.3965 5.72021 25.8179 6.21826 24.8145H6.24023C6.24023 24.8145 6.26953 24.8145 6.27686 24.8145C6.2915 24.8145 6.34277 24.8145 6.34277 24.8145C6.34277 27.2314 5.42725 28.6743 3.88184 28.6743C2.97363 28.6743 2.27051 28.1763 2.02881 27.3779H0.146484C0.461426 29.1138 1.93359 30.2563 3.86719 30.2563ZM3.93311 24.895C2.71729 24.895 1.85303 24.0308 1.85303 22.8223C1.85303 21.6431 2.76123 20.7422 3.94043 20.7422C5.11963 20.7422 6.02783 21.6577 6.02783 22.8516C6.02783 24.0308 5.1416 24.895 3.93311 24.895Z" fill="#595454"/>
<path d="M11.243 30.1538C11.9388 30.1538 12.4148 29.6558 12.4148 28.9966C12.4148 28.3301 11.9388 27.8394 11.243 27.8394C10.5545 27.8394 10.0711 28.3301 10.0711 28.9966C10.0711 29.6558 10.5545 30.1538 11.243 30.1538ZM11.243 24.6606C11.9388 24.6606 12.4148 24.1699 12.4148 23.5107C12.4148 22.8442 11.9388 22.3535 11.243 22.3535C10.5545 22.3535 10.0711 22.8442 10.0711 23.5107C10.0711 24.1699 10.5545 24.6606 11.243 24.6606Z" fill="#595454"/>
<path d="M19.2706 30H21.0797V28.0298H22.5079V26.4331H21.0797V19.4312H18.4137C16.546 22.2437 15.0592 24.5947 14.107 26.3452V28.0298H19.2706V30ZM15.8575 26.3672C17.088 24.1992 18.1866 22.4634 19.1974 20.9692H19.2999V26.4771H15.8575V26.3672Z" fill="#595454"/>
<path d="M26.5365 30H28.4262V19.4312H26.5438L23.7826 21.3647V23.1812L26.412 21.3354H26.5365V30Z" fill="#595454"/>
</svg>
