<svg width="24" height="21" viewBox="0 0 24 21" fill="none" xmlns="http://www.w3.org/2000/svg">
<path d="M22.2083 8.54302H5.125L10.7454 2.9226C10.9055 2.76379 11.0326 2.57485 11.1194 2.36667C11.2061 2.1585 11.2507 1.93521 11.2507 1.70969C11.2507 1.48417 11.2061 1.26088 11.1194 1.0527C11.0326 0.844526 10.9055 0.655582 10.7454 0.49677C10.4253 0.178592 9.99236 0 9.54104 0C9.08973 0 8.65674 0.178592 8.33667 0.49677L1.00792 7.8426C0.366288 8.48041 0.00381435 9.34666 0 10.2514C0.00831375 11.1501 0.370443 12.0094 1.00792 12.643L8.33667 19.9889C8.49595 20.147 8.68482 20.2723 8.89251 20.3574C9.10019 20.4426 9.32261 20.486 9.54708 20.4852C9.77155 20.4844 9.99366 20.4394 10.2007 20.3528C10.4078 20.2662 10.5958 20.1396 10.754 19.9803C10.9121 19.821 11.0374 19.6322 11.1225 19.4245C11.2077 19.2168 11.2511 18.9944 11.2503 18.7699C11.2495 18.5454 11.2045 18.3233 11.1179 18.1162C11.0313 17.9092 10.9047 17.7212 10.7454 17.563L5.125 11.9597H22.2083C22.6614 11.9597 23.0959 11.7797 23.4163 11.4593C23.7367 11.139 23.9167 10.7044 23.9167 10.2514C23.9167 9.79828 23.7367 9.36376 23.4163 9.04338C23.0959 8.72301 22.6614 8.54302 22.2083 8.54302Z" fill="#595454"/>
</svg>
